<svg width="143" height="142" viewBox="0 0 143 142" fill="none" xmlns="http://www.w3.org/2000/svg">
<circle cx="71.4119" cy="70.7647" r="68.7059" fill="#FFCE74" stroke="#9B5F4F" stroke-width="4"/>
<mask id="mask0_65_285" style="mask-type:alpha" maskUnits="userSpaceOnUse" x="5" y="4" width="134" height="134">
<circle cx="71.7646" cy="71.1176" r="66.3529" fill="#D9D9D9"/>
</mask>
<g mask="url(#mask0_65_285)">
<path d="M50.5884 98.647L96.4707 133.588L125.412 131.823L148.706 73.9411L114.471 40.7646L50.5884 98.647Z" fill="#F99953"/>
</g>
<path d="M43.8825 65.1176L60.4707 81.3529L97.5295 43.9411C105.153 36.3176 110.824 37.4705 112.706 39C119.2 44.3647 117.059 50.4117 115.177 52.7647L69.2942 98.647C64.4942 103.165 61.4119 104.059 60.4707 103.941C58.212 104.506 54.3531 102.059 52.706 100.765L29.7649 77.1176C27.5296 74.7647 24.4002 68.8588 29.7649 64.0588C35.1296 59.2588 41.4119 62.7647 43.8825 65.1176Z" fill="white"/>
</svg>
