<svg width="16" height="21" viewBox="0 0 16 21" fill="none" xmlns="http://www.w3.org/2000/svg">
<path d="M14.8986 20.196L8 16.9354L1.10143 20.1961C0.876752 20.3023 0.596897 20.305 0.368921 20.2034C0.140945 20.1017 0 19.9112 0 19.7048V1.29508C0 0.978681 0.325624 0.722168 0.727273 0.722168H15.2727C15.6744 0.722168 16 0.978681 16 1.29508V19.7048C16 19.9112 15.8591 20.1017 15.6311 20.2033C15.4034 20.3048 15.1236 20.3024 14.8986 20.196Z" fill="#7C2D18"/>
<path d="M10.0289 13.976L8.00006 12.8631L5.97122 13.9761C5.74797 14.0986 5.47741 14.0782 5.27329 13.9234C5.06922 13.7687 4.96698 13.5065 5.00966 13.2471L5.39717 10.8898L3.7558 9.22029C3.57519 9.03658 3.51015 8.76177 3.58813 8.51143C3.66607 8.2611 3.87345 8.07863 4.12312 8.04078L6.39143 7.69686L7.40583 5.55208C7.51747 5.31604 7.74788 5.16663 8.00011 5.16663C8.25234 5.16663 8.48274 5.31609 8.59439 5.55208L9.60879 7.69686L11.8771 8.04078C12.1267 8.07863 12.3341 8.2611 12.4121 8.51143C12.4901 8.76177 12.425 9.03658 12.2444 9.22029L10.603 10.8898L10.9906 13.2471C11.0332 13.5065 10.931 13.7687 10.7269 13.9234C10.5239 14.0773 10.2533 14.0992 10.0289 13.976Z" fill="white"/>
</svg>
