<svg width="126" height="125" viewBox="0 0 126 125" fill="none" xmlns="http://www.w3.org/2000/svg">
<rect x="2.20703" y="2" width="121" height="121" rx="22" fill="#FFCE74" stroke="#611A2C" stroke-width="4"/>
<path d="M24.7072 112.5C10.7072 112.1 5.20721 102.667 4.20721 98C2.20703 112.5 15.2072 120.833 20.7072 121.5H102.707C118.207 119.5 123.207 104 120.707 98C121.507 107.6 109.707 111.667 103.707 112.5H24.7072Z" fill="#F99953"/>
<rect x="38" y="29" width="47" height="12" rx="6" fill="white"/>
<rect x="19" y="51" width="40" height="12" rx="6" fill="white"/>
<rect x="33" y="73" width="52" height="12" rx="6" fill="white"/>
<path fill-rule="evenodd" clip-rule="evenodd" d="M80 85C95.464 85 108 72.464 108 57C108 41.536 95.464 29 80 29C64.536 29 52 41.536 52 57C52 72.464 64.536 85 80 85ZM75.5 56C79.6421 56 83 52.6421 83 48.5C83 44.3579 79.6421 41 75.5 41C71.3579 41 68 44.3579 68 48.5C68 52.6421 71.3579 56 75.5 56ZM97 59.5C97 62.5376 94.5376 65 91.5 65C88.4624 65 86 62.5376 86 59.5C86 56.4624 88.4624 54 91.5 54C94.5376 54 97 56.4624 97 59.5ZM73.5 72C75.9853 72 78 69.9853 78 67.5C78 65.0147 75.9853 63 73.5 63C71.0147 63 69 65.0147 69 67.5C69 69.9853 71.0147 72 73.5 72Z" fill="white"/>
</svg>
